<svg xmlns="http://www.w3.org/2000/svg" xmlns:xlink="http://www.w3.org/1999/xlink" xmlns:serif="http://www.serif.com/" width="100%" height="100%" viewBox="0 0 52 52" xml:space="preserve" style="fill-rule:evenodd;clip-rule:evenodd;stroke-linejoin:round;stroke-miterlimit:2;">    <g transform="matrix(1,0,0,1,-474.981,-597.051)">        <g transform="matrix(1,0,0,1,474.981,597.051)">            <clipPath id="_clip1">                <path d="M52,2.444C52,1.095 50.905,0 49.556,0L2.444,0C1.095,0 0,1.095 0,2.444L0,49.556C0,50.905 1.095,52 2.444,52L49.556,52C50.905,52 52,50.905 52,49.556L52,2.444Z"></path>            </clipPath>            <g clip-path="url(#_clip1)">                <rect x="-1" y="-1" width="54" height="54" style="fill:rgb(134,179,167);"></rect>            </g>        </g>        <g transform="matrix(0.950408,0,0,0.950408,207.072,256.84)">            <path d="M302.655,402.868C299.385,402.868 296.549,402.235 294.148,400.968C291.747,399.701 289.913,397.955 288.646,395.731C287.379,393.507 286.746,391.01 286.746,388.241C286.746,385.56 287.453,383.151 288.867,381.015C290.281,378.879 292.211,377.215 294.656,376.022C297.102,374.828 299.827,374.232 302.832,374.232C304.216,374.232 305.63,374.357 307.074,374.607C308.518,374.858 309.652,375.16 310.477,375.513C310.712,375.631 310.86,375.749 310.919,375.867C310.978,375.985 311.022,376.206 311.051,376.53L311.405,382.319C311.405,382.437 311.331,382.51 311.184,382.54C311.037,382.569 310.933,382.54 310.875,382.451C309.843,380.212 308.488,378.467 306.809,377.215C305.13,375.963 303.185,375.337 300.976,375.337C298.118,375.337 295.894,376.346 294.303,378.364C292.712,380.382 291.916,383.129 291.916,386.605C291.916,389.64 292.447,392.321 293.507,394.648C294.568,396.976 296.019,398.773 297.86,400.04C299.701,401.307 301.786,401.94 304.113,401.94C305.174,401.94 305.984,401.785 306.544,401.476C307.104,401.167 307.494,400.651 307.715,399.929C307.936,399.207 308.046,398.154 308.046,396.77C308.046,395.326 307.914,394.28 307.649,393.632C307.383,392.984 306.897,392.557 306.19,392.35C305.483,392.144 304.349,392.041 302.787,392.041C302.611,392.041 302.522,391.923 302.522,391.688C302.522,391.599 302.544,391.518 302.589,391.444C302.633,391.371 302.684,391.334 302.743,391.334C305.189,391.481 307.221,391.555 308.842,391.555C310.374,391.555 311.965,391.511 313.614,391.422C313.732,391.422 313.806,391.525 313.835,391.732C313.865,391.938 313.821,392.041 313.703,392.041C313.231,392.012 312.937,392.129 312.819,392.395C312.701,392.66 312.642,393.264 312.642,394.206L312.642,397.211C312.642,398.537 312.686,399.465 312.775,399.996C312.863,400.526 312.907,400.894 312.907,401.1C312.907,401.277 312.885,401.395 312.841,401.454C312.797,401.513 312.686,401.572 312.51,401.631C308.739,402.456 305.454,402.868 302.655,402.868Z" style="fill:rgb(251,248,247);fill-rule:nonzero;"></path>            <path d="M331.203,397.123C331.203,397.064 331.262,397.035 331.379,397.035C331.468,397.035 331.556,397.057 331.645,397.101C331.733,397.145 331.762,397.182 331.733,397.211C331.556,398.773 331.365,399.922 331.158,400.658C330.952,401.395 330.68,401.896 330.341,402.161C330.002,402.426 329.523,402.559 328.905,402.559C327.844,402.559 326.224,402.367 324.044,401.984C323.778,401.955 323.101,401.852 322.011,401.675C320.921,401.498 319.949,401.395 319.094,401.365C318.593,401.365 318.166,401.454 317.813,401.631C317.459,401.807 317.076,402.146 316.664,402.647C316.664,402.676 316.634,402.691 316.575,402.691C316.428,402.691 316.273,402.61 316.111,402.448C315.949,402.286 315.898,402.161 315.957,402.073L326.297,389.655C325.708,389.625 324.427,389.448 322.453,389.124C320.832,388.8 319.698,388.638 319.05,388.638C317.813,388.638 317.12,389.154 316.973,390.185C316.944,390.332 316.84,390.391 316.664,390.362C316.487,390.332 316.428,390.244 316.487,390.097C316.723,388.447 316.944,387.276 317.15,386.583C317.356,385.891 317.651,385.434 318.034,385.213C318.417,384.992 319.021,384.897 319.845,384.926C320.376,384.956 321.046,385.037 321.856,385.169C322.666,385.302 323.233,385.398 323.558,385.457C325.384,385.81 326.901,386.031 328.109,386.119C328.64,386.119 329.081,386.031 329.435,385.854C329.789,385.677 330.157,385.339 330.54,384.838C330.54,384.808 330.569,384.794 330.628,384.794C330.746,384.794 330.886,384.867 331.048,385.015C331.21,385.162 331.276,385.265 331.247,385.324L320.95,397.786C321.922,397.815 323.484,398.007 325.635,398.36C327.579,398.655 328.802,398.802 329.302,398.802C329.833,398.802 330.245,398.67 330.54,398.405C330.834,398.139 331.055,397.712 331.203,397.123Z" style="fill:rgb(251,248,247);fill-rule:nonzero;"></path>        </g>    </g></svg>