<?xml version="1.0" encoding="UTF-8" standalone="no"?>
<svg xmlns="http://www.w3.org/2000/svg" xmlns:xlink="http://www.w3.org/1999/xlink" xmlns:serif="http://www.serif.com/" width="100%" height="100%" viewBox="0 0 111 111" version="1.1" xml:space="preserve" style="fill-rule:evenodd;clip-rule:evenodd;stroke-linejoin:round;stroke-miterlimit:2;">
    <g transform="matrix(1,0,0,1,-923.852,-437.201)">
        <g transform="matrix(1,0,0,1,759.906,166.706)">
            <path d="M274.697,275.699C274.697,272.827 272.365,270.495 269.492,270.495L169.151,270.495C166.278,270.495 163.946,272.827 163.946,275.699L163.946,376.041C163.946,378.914 166.278,381.246 169.151,381.246L269.492,381.246C272.365,381.246 274.697,378.914 274.697,376.041L274.697,275.699Z" style="fill:rgb(74,55,42);"></path>
        </g>
        <g transform="matrix(1.41722,0,0,1.41722,458.69,21.2581)">
            <path d="M335.256,336.802L335.256,332.459C335.256,332.417 335.266,332.323 335.287,332.177C335.308,332.032 335.334,331.875 335.365,331.709C335.396,331.542 335.422,331.38 335.443,331.224C335.464,331.068 335.475,330.959 335.475,330.896L335.475,328.521C335.579,327.479 335.876,326.396 336.365,325.271C336.855,324.146 337.37,323.136 337.912,322.24C337.933,322.219 338.006,322.12 338.131,321.943C338.256,321.766 338.396,321.558 338.553,321.318C338.709,321.078 338.865,320.844 339.021,320.615C339.178,320.386 339.297,320.209 339.381,320.084L339.6,319.865C339.62,319.844 339.672,319.755 339.756,319.599C339.839,319.443 339.928,319.282 340.021,319.115C340.115,318.948 340.204,318.787 340.287,318.63C340.37,318.474 340.433,318.386 340.475,318.365C340.516,318.302 340.605,318.198 340.74,318.052C340.876,317.907 341.027,317.755 341.193,317.599C341.36,317.443 341.521,317.292 341.678,317.146C341.834,317 341.954,316.896 342.037,316.834C342.037,316.813 342.1,316.755 342.225,316.662C342.35,316.568 342.485,316.474 342.631,316.38C342.777,316.287 342.917,316.198 343.053,316.115C343.188,316.032 343.277,315.99 343.318,315.99C343.339,315.969 343.386,315.917 343.459,315.834C343.532,315.75 343.615,315.657 343.709,315.552C343.803,315.448 343.896,315.354 343.99,315.271C344.084,315.188 344.152,315.136 344.193,315.115C344.214,315.094 344.282,315.047 344.396,314.974C344.511,314.901 344.641,314.823 344.787,314.74C344.933,314.657 345.074,314.584 345.209,314.521C345.344,314.459 345.433,314.417 345.475,314.396C345.975,314.125 346.443,313.787 346.881,313.38C347.318,312.974 347.787,312.594 348.287,312.24C348.558,312.094 348.787,312.016 348.975,312.005C349.162,311.995 349.443,311.948 349.818,311.865C349.881,311.844 350.042,311.787 350.303,311.693C350.563,311.599 350.834,311.505 351.115,311.412C351.396,311.318 351.667,311.224 351.928,311.13C352.188,311.037 352.35,310.979 352.412,310.959L353.912,310.959C353.954,310.959 354.063,310.933 354.24,310.88C354.417,310.828 354.527,310.802 354.568,310.802L354.85,310.802C356.079,310.802 357.292,310.891 358.49,311.068C359.688,311.245 360.902,311.354 362.131,311.396C362.381,311.584 362.667,311.729 362.99,311.834C363.313,311.938 363.652,312.026 364.006,312.099C364.36,312.172 364.719,312.24 365.084,312.302C365.449,312.365 365.787,312.438 366.1,312.521C366.475,312.625 366.797,312.792 367.068,313.021C367.339,313.25 367.735,313.448 368.256,313.615C369.047,313.865 369.688,314.047 370.178,314.162C370.667,314.276 371.042,314.448 371.303,314.677C371.563,314.907 371.74,315.235 371.834,315.662C371.928,316.089 371.975,316.74 371.975,317.615C371.975,318.073 371.928,318.594 371.834,319.177C371.74,319.761 371.579,320.318 371.35,320.849C371.12,321.38 370.808,321.828 370.412,322.193C370.016,322.558 369.516,322.74 368.912,322.74L368.537,322.74C368.391,322.74 368.297,322.719 368.256,322.677C368.193,322.677 368.11,322.651 368.006,322.599C367.902,322.547 367.792,322.485 367.678,322.412C367.563,322.339 367.454,322.266 367.35,322.193C367.245,322.12 367.183,322.063 367.162,322.021C367.079,321.938 366.933,321.771 366.725,321.521C366.516,321.271 366.297,321.005 366.068,320.724C365.839,320.443 365.62,320.183 365.412,319.943C365.204,319.703 365.068,319.532 365.006,319.427C364.964,319.219 364.912,318.974 364.85,318.693C364.787,318.412 364.672,318.157 364.506,317.927C364.297,317.636 364.079,317.328 363.85,317.005C363.62,316.683 363.365,316.386 363.084,316.115C362.803,315.844 362.495,315.615 362.162,315.427C361.829,315.24 361.464,315.136 361.068,315.115L359.6,315.115C359.558,315.115 359.469,315.078 359.334,315.005C359.199,314.933 359.053,314.854 358.896,314.771C358.74,314.688 358.6,314.61 358.475,314.537C358.35,314.464 358.277,314.417 358.256,314.396C358.006,314.292 357.761,314.235 357.521,314.224C357.282,314.214 357.037,314.209 356.787,314.209L354.131,314.209C353.818,314.25 353.558,314.334 353.35,314.459C353.141,314.584 352.943,314.724 352.756,314.88C352.568,315.037 352.381,315.214 352.193,315.412C352.006,315.61 351.787,315.802 351.537,315.99C351.495,316.011 351.35,316.068 351.1,316.162C350.85,316.255 350.714,316.323 350.693,316.365C350.672,316.386 350.62,316.443 350.537,316.537C350.454,316.63 350.365,316.724 350.271,316.818L349.818,317.271C349.547,317.5 349.261,317.724 348.959,317.943C348.657,318.162 348.433,318.448 348.287,318.802C348.287,318.823 348.266,318.886 348.225,318.99C348.183,319.094 348.136,319.209 348.084,319.334C348.032,319.459 347.98,319.573 347.928,319.677C347.876,319.782 347.839,319.844 347.818,319.865C347.797,319.907 347.74,319.979 347.646,320.084C347.553,320.188 347.443,320.302 347.318,320.427C347.193,320.552 347.074,320.667 346.959,320.771C346.844,320.875 346.766,320.938 346.725,320.959C346.725,320.979 346.693,321.042 346.631,321.146C346.568,321.25 346.506,321.365 346.443,321.49C346.381,321.615 346.318,321.729 346.256,321.834C346.193,321.938 346.152,322 346.131,322.021C346.11,322.063 346.053,322.136 345.959,322.24C345.865,322.344 345.771,322.459 345.678,322.584C345.584,322.709 345.495,322.823 345.412,322.927C345.329,323.032 345.287,323.094 345.287,323.115C345.058,323.386 344.928,323.703 344.896,324.068C344.865,324.433 344.756,324.782 344.568,325.115L344.412,325.271C344.225,325.521 344.084,325.792 343.99,326.084C343.896,326.375 343.824,326.677 343.771,326.99C343.719,327.302 343.672,327.61 343.631,327.912C343.589,328.214 343.537,328.49 343.475,328.74C343.475,328.782 343.454,328.86 343.412,328.974C343.37,329.089 343.329,329.209 343.287,329.334C343.245,329.459 343.204,329.568 343.162,329.662C343.12,329.755 343.1,329.813 343.1,329.834C342.808,330.667 342.594,331.443 342.459,332.162C342.324,332.88 342.256,333.698 342.256,334.615C342.256,335.386 342.297,336.104 342.381,336.771C342.464,337.438 342.594,338.084 342.771,338.709C342.949,339.334 343.172,339.953 343.443,340.568C343.714,341.183 344.037,341.813 344.412,342.459C344.6,342.854 344.782,343.297 344.959,343.787C345.136,344.276 345.37,344.688 345.662,345.021C345.725,345.084 345.824,345.188 345.959,345.334C346.094,345.479 346.245,345.636 346.412,345.802C346.579,345.969 346.74,346.125 346.896,346.271C347.053,346.417 347.162,346.521 347.225,346.584C347.391,346.709 347.636,346.787 347.959,346.818C348.282,346.849 348.537,346.917 348.725,347.021C348.808,347.042 348.964,347.099 349.193,347.193C349.422,347.287 349.558,347.354 349.6,347.396C349.683,347.479 349.839,347.63 350.068,347.849C350.297,348.068 350.537,348.308 350.787,348.568C351.037,348.828 351.271,349.078 351.49,349.318C351.709,349.558 351.87,349.729 351.975,349.834C352.85,350.125 353.735,350.313 354.631,350.396C355.527,350.479 356.443,350.521 357.381,350.521C357.86,350.521 358.308,350.438 358.725,350.271C359.141,350.104 359.558,349.886 359.975,349.615C360.329,349.323 360.646,349.068 360.928,348.849C361.209,348.63 361.412,348.302 361.537,347.865C361.537,347.802 361.547,347.677 361.568,347.49C361.589,347.302 361.61,347.099 361.631,346.88C361.652,346.662 361.672,346.459 361.693,346.271C361.714,346.084 361.735,345.969 361.756,345.927C361.756,345.886 361.782,345.75 361.834,345.521C361.886,345.292 361.933,345.125 361.975,345.021C361.975,344.979 362.001,344.875 362.053,344.709C362.105,344.542 362.131,344.448 362.131,344.427L362.131,343.052C362.172,342.698 362.235,342.36 362.318,342.037C362.402,341.714 362.48,341.386 362.553,341.052C362.626,340.719 362.693,340.38 362.756,340.037C362.818,339.693 362.85,339.313 362.85,338.896C362.85,338.563 362.839,338.177 362.818,337.74C362.797,337.302 362.751,336.865 362.678,336.427C362.605,335.99 362.495,335.573 362.35,335.177C362.204,334.782 362.006,334.459 361.756,334.209C361.464,333.917 361.167,333.735 360.865,333.662C360.563,333.589 360.235,333.552 359.881,333.552L358.912,333.552C358.683,333.532 358.412,333.459 358.1,333.334C357.787,333.209 357.48,333.047 357.178,332.849C356.876,332.651 356.62,332.427 356.412,332.177C356.204,331.927 356.1,331.667 356.1,331.396L356.1,331.177C356.141,331.073 356.251,330.938 356.428,330.771C356.605,330.604 356.704,330.521 356.725,330.521L361.975,330.521C362.12,330.375 362.292,330.292 362.49,330.271C362.688,330.25 362.881,330.24 363.068,330.24C363.318,330.24 363.563,330.276 363.803,330.349C364.042,330.422 364.277,330.505 364.506,330.599C364.735,330.693 364.964,330.776 365.193,330.849C365.422,330.922 365.662,330.959 365.912,330.959C365.975,330.959 366.032,330.948 366.084,330.927C366.136,330.907 366.214,330.896 366.318,330.896C366.339,330.896 366.412,330.865 366.537,330.802C366.662,330.74 366.792,330.672 366.928,330.599C367.063,330.526 367.193,330.459 367.318,330.396C367.443,330.334 367.516,330.302 367.537,330.302C367.6,330.302 367.745,330.292 367.975,330.271C368.204,330.25 368.381,330.24 368.506,330.24L369.068,330.24C369.297,330.24 369.506,330.261 369.693,330.302C369.881,330.344 370.047,330.448 370.193,330.615L374.506,330.615C374.652,330.615 374.771,330.657 374.865,330.74C374.959,330.823 375.032,330.927 375.084,331.052C375.136,331.177 375.172,331.308 375.193,331.443C375.214,331.578 375.225,331.688 375.225,331.771C375.225,332.25 375.079,332.61 374.787,332.849C374.495,333.089 374.131,333.261 373.693,333.365C373.256,333.469 372.782,333.542 372.271,333.584C371.761,333.625 371.277,333.693 370.818,333.787C370.36,333.88 369.969,334.037 369.646,334.255C369.324,334.474 369.141,334.813 369.1,335.271C369.1,335.459 369.079,335.771 369.037,336.209C368.995,336.646 368.949,337.104 368.896,337.584C368.844,338.063 368.792,338.516 368.74,338.943C368.688,339.37 368.652,339.667 368.631,339.834C368.631,339.917 368.641,340.162 368.662,340.568C368.683,340.974 368.693,341.354 368.693,341.709L368.693,342.193C368.693,342.328 368.672,342.417 368.631,342.459C368.631,342.5 368.62,342.584 368.6,342.709C368.579,342.834 368.563,342.969 368.553,343.115C368.542,343.261 368.527,343.396 368.506,343.521C368.485,343.646 368.475,343.729 368.475,343.771L368.475,347.396C368.495,347.479 368.527,347.573 368.568,347.677C368.61,347.782 368.631,347.844 368.631,347.865C368.672,347.907 368.74,347.974 368.834,348.068C368.928,348.162 369.021,348.271 369.115,348.396C369.209,348.521 369.297,348.636 369.381,348.74C369.464,348.844 369.516,348.917 369.537,348.959C369.558,349.021 369.594,349.12 369.646,349.255C369.699,349.391 369.745,349.537 369.787,349.693C369.829,349.849 369.865,350 369.896,350.146C369.928,350.292 369.954,350.386 369.975,350.427C369.954,350.677 369.855,350.87 369.678,351.005C369.501,351.141 369.297,351.255 369.068,351.349C368.839,351.443 368.605,351.521 368.365,351.584C368.126,351.646 367.943,351.709 367.818,351.771C367.777,351.771 367.714,351.808 367.631,351.88C367.547,351.953 367.459,352.026 367.365,352.099C367.271,352.172 367.183,352.245 367.1,352.318C367.016,352.391 366.964,352.427 366.943,352.427C366.943,352.427 366.886,352.448 366.771,352.49C366.657,352.532 366.527,352.573 366.381,352.615C366.235,352.657 366.094,352.698 365.959,352.74C365.824,352.782 365.725,352.813 365.662,352.834C365.6,352.834 365.449,352.865 365.209,352.927C364.969,352.99 364.829,353.032 364.787,353.052C364.766,353.052 364.709,353.073 364.615,353.115C364.521,353.157 364.428,353.209 364.334,353.271C364.24,353.334 364.152,353.386 364.068,353.427C363.985,353.469 363.933,353.49 363.912,353.49C363.85,353.511 363.688,353.532 363.428,353.552C363.167,353.573 362.891,353.594 362.6,353.615C362.308,353.636 362.032,353.662 361.771,353.693C361.511,353.724 361.35,353.75 361.287,353.771C361.225,353.771 361.11,353.787 360.943,353.818C360.777,353.849 360.605,353.886 360.428,353.927C360.251,353.969 360.084,354.011 359.928,354.052C359.771,354.094 359.662,354.125 359.6,354.146L351.318,354.146C350.86,354.146 350.386,354 349.896,353.709C349.407,353.417 348.943,353.198 348.506,353.052C348.089,352.948 347.735,352.865 347.443,352.802C347.152,352.74 346.86,352.615 346.568,352.427C346.547,352.427 346.501,352.407 346.428,352.365C346.355,352.323 346.277,352.271 346.193,352.209C346.11,352.146 346.037,352.094 345.975,352.052C345.912,352.011 345.881,351.99 345.881,351.99C345.839,351.969 345.756,351.938 345.631,351.896C345.506,351.854 345.37,351.808 345.225,351.755C345.079,351.703 344.943,351.657 344.818,351.615C344.693,351.573 344.61,351.532 344.568,351.49C344.235,351.365 343.938,351.151 343.678,350.849C343.417,350.547 343.141,350.282 342.85,350.052C342.787,349.99 342.704,349.917 342.6,349.834C342.495,349.75 342.386,349.662 342.271,349.568C342.157,349.474 342.047,349.391 341.943,349.318C341.839,349.245 341.777,349.198 341.756,349.177C341.735,349.157 341.667,349.115 341.553,349.052C341.438,348.99 341.308,348.922 341.162,348.849C341.016,348.776 340.876,348.714 340.74,348.662C340.605,348.61 340.516,348.563 340.475,348.521C340.454,348.5 340.412,348.438 340.35,348.334C340.287,348.229 340.219,348.115 340.146,347.99C340.074,347.865 340.006,347.745 339.943,347.63C339.881,347.516 339.839,347.438 339.818,347.396L339.693,347.334C339.631,347.313 339.6,347.261 339.6,347.177C339.329,346.844 339.058,346.479 338.787,346.084C338.516,345.688 338.277,345.271 338.068,344.834C338.047,344.792 338.016,344.641 337.975,344.38C337.933,344.12 337.912,343.969 337.912,343.927C337.683,343.386 337.391,342.844 337.037,342.302C336.683,341.761 336.381,341.219 336.131,340.677C336.006,340.386 335.912,340.078 335.85,339.755C335.787,339.433 335.73,339.104 335.678,338.771C335.626,338.438 335.574,338.104 335.521,337.771C335.469,337.438 335.381,337.115 335.256,336.802Z" style="fill:rgb(251,248,247);fill-rule:nonzero;"></path>
        </g>
        <g transform="matrix(1.41722,0,0,1.41722,458.69,21.2581)">
            <path d="M379.323,353.223C379.323,352.872 379.415,352.511 379.6,352.142C379.785,351.773 380.009,351.404 380.272,351.035C380.536,350.666 380.804,350.31 381.077,349.967C381.349,349.624 381.573,349.312 381.749,349.031C381.942,348.732 382.123,348.416 382.29,348.082C382.456,347.748 382.654,347.458 382.883,347.212C382.9,347.176 382.949,347.11 383.028,347.014C383.107,346.917 383.199,346.816 383.305,346.711C383.41,346.605 383.511,346.513 383.608,346.434C383.705,346.355 383.77,346.306 383.806,346.289C383.929,346.13 384.017,345.977 384.069,345.827C384.122,345.678 384.166,345.528 384.201,345.379C384.236,345.23 384.276,345.08 384.32,344.931C384.364,344.781 384.43,344.628 384.518,344.469C384.535,344.434 384.575,344.359 384.636,344.245C384.698,344.131 384.768,344.008 384.847,343.876C384.926,343.744 385.001,343.626 385.071,343.52C385.142,343.415 385.185,343.353 385.203,343.336C385.221,343.3 385.247,343.23 385.282,343.125C385.317,343.019 385.357,342.905 385.401,342.782C385.445,342.659 385.484,342.545 385.519,342.439C385.555,342.334 385.59,342.263 385.625,342.228C385.818,341.718 386.1,341.226 386.469,340.752C386.838,340.277 387.163,339.802 387.444,339.328C387.444,339.293 387.466,339.2 387.51,339.051C387.554,338.901 387.576,338.809 387.576,338.774C387.594,338.721 387.624,338.625 387.668,338.484C387.712,338.343 387.756,338.19 387.8,338.023C387.844,337.856 387.884,337.702 387.919,337.561C387.954,337.421 387.98,337.324 387.998,337.271C387.998,337.254 388.033,337.192 388.103,337.087C388.174,336.981 388.248,336.867 388.328,336.744C388.407,336.621 388.486,336.502 388.565,336.388C388.644,336.274 388.692,336.199 388.71,336.164C388.903,335.865 389.013,335.535 389.04,335.175C389.066,334.815 389.079,334.467 389.079,334.133C389.079,333.712 388.969,333.452 388.749,333.356C388.53,333.259 388.2,333.211 387.761,333.211C387.708,333.211 387.646,333.215 387.576,333.224C387.506,333.233 387.427,333.246 387.339,333.263C387.251,333.281 387.163,333.29 387.075,333.29C386.917,333.307 386.666,333.342 386.324,333.395C385.981,333.448 385.625,333.501 385.256,333.553C384.887,333.606 384.548,333.659 384.241,333.712C383.933,333.764 383.727,333.791 383.621,333.791C383.551,333.808 383.441,333.843 383.291,333.896C383.142,333.949 382.988,334.006 382.83,334.067C382.672,334.129 382.522,334.186 382.382,334.239C382.241,334.292 382.153,334.327 382.118,334.344C381.872,334.503 381.639,334.7 381.419,334.938C381.2,335.175 380.971,335.399 380.734,335.61C380.497,335.821 380.246,336.005 379.982,336.164C379.719,336.322 379.42,336.401 379.086,336.401C378.91,336.401 378.752,336.335 378.611,336.203C378.471,336.071 378.348,335.913 378.242,335.729C378.137,335.544 378.053,335.355 377.992,335.162C377.93,334.968 377.899,334.801 377.899,334.661C377.899,334.344 377.992,334.015 378.176,333.672C378.361,333.329 378.515,333.008 378.638,332.71C378.673,332.657 378.712,332.534 378.756,332.34C378.8,332.147 378.822,332.024 378.822,331.971L378.822,331.075C378.857,330.864 378.967,330.692 379.152,330.561C379.336,330.429 379.473,330.293 379.56,330.152C379.596,330.099 379.64,330.025 379.692,329.928C379.745,329.831 379.798,329.726 379.851,329.611C379.903,329.497 379.956,329.387 380.009,329.282C380.061,329.176 380.105,329.106 380.141,329.071L380.193,329.071C380.457,329.071 380.694,329.154 380.905,329.321C381.116,329.488 381.327,329.677 381.538,329.888C381.749,330.099 381.969,330.306 382.197,330.508C382.426,330.71 382.698,330.838 383.015,330.89C383.067,330.89 383.16,330.903 383.291,330.93C383.423,330.956 383.555,330.978 383.687,330.996C383.819,331.013 383.946,331.031 384.069,331.048C384.192,331.066 384.271,331.075 384.307,331.075L388.499,331.075C388.956,331.092 389.391,331.163 389.804,331.286C390.217,331.409 390.644,331.47 391.083,331.47C391.382,331.47 391.659,331.409 391.914,331.286C392.168,331.163 392.445,331.092 392.744,331.075L395.275,331.075L395.882,331.602L395.882,332.789C395.882,332.912 395.873,333.017 395.855,333.105C395.838,333.193 395.785,333.307 395.697,333.448C395.68,333.465 395.644,333.509 395.592,333.58C395.539,333.65 395.482,333.725 395.42,333.804C395.359,333.883 395.297,333.962 395.236,334.041C395.174,334.12 395.135,334.177 395.117,334.213C395.029,334.353 394.963,334.511 394.919,334.687C394.875,334.863 394.831,335.039 394.788,335.214C394.744,335.39 394.691,335.562 394.629,335.729C394.568,335.896 394.484,336.041 394.379,336.164C394.344,336.216 394.251,336.322 394.102,336.48C393.953,336.638 393.86,336.735 393.825,336.77C393.79,336.805 393.764,336.849 393.746,336.902C393.711,336.937 393.689,336.972 393.68,337.007C393.671,337.043 393.658,337.069 393.641,337.087C393.641,337.122 393.619,337.223 393.575,337.39C393.531,337.557 393.491,337.649 393.456,337.667C393.456,337.684 393.416,337.728 393.337,337.798C393.258,337.869 393.179,337.943 393.1,338.023C393.021,338.102 392.942,338.181 392.863,338.26C392.784,338.339 392.744,338.387 392.744,338.405C392.709,338.44 392.639,338.554 392.533,338.748C392.428,338.941 392.375,339.055 392.375,339.09C391.654,340.374 390.863,341.604 390.002,342.782C389.967,342.835 389.896,342.931 389.791,343.072C389.685,343.213 389.633,343.3 389.633,343.336C389.615,343.353 389.589,343.401 389.554,343.481C389.519,343.56 389.483,343.639 389.448,343.718C389.413,343.797 389.378,343.872 389.343,343.942C389.308,344.012 389.281,344.056 389.264,344.074C389.228,344.127 389.154,344.214 389.04,344.338C388.925,344.461 388.807,344.592 388.684,344.733C388.56,344.874 388.446,345.005 388.341,345.129C388.235,345.252 388.183,345.339 388.183,345.392C388.007,345.656 387.862,345.946 387.748,346.262C387.633,346.579 387.528,346.9 387.431,347.225C387.334,347.55 387.242,347.88 387.154,348.213C387.066,348.547 386.961,348.864 386.838,349.163C386.803,349.321 386.737,349.457 386.64,349.571C386.543,349.686 386.442,349.8 386.337,349.914C386.231,350.028 386.139,350.147 386.06,350.27C385.981,350.393 385.941,350.534 385.941,350.692C385.941,350.85 386.016,351.004 386.165,351.153C386.315,351.303 386.495,351.435 386.706,351.549C386.917,351.663 387.137,351.751 387.365,351.813C387.594,351.874 387.787,351.905 387.945,351.905L388.499,351.905C388.534,351.905 388.6,351.896 388.697,351.879C388.793,351.861 388.89,351.848 388.987,351.839C389.083,351.83 389.176,351.817 389.264,351.799C389.352,351.782 389.395,351.773 389.395,351.773C389.483,351.773 389.655,351.777 389.91,351.786C390.165,351.795 390.437,351.808 390.727,351.826C391.017,351.843 391.303,351.861 391.584,351.879C391.865,351.896 392.085,351.905 392.243,351.905C392.261,351.905 392.366,351.936 392.56,351.997C392.753,352.059 392.876,352.089 392.929,352.089C392.946,352.089 393.003,352.085 393.1,352.076C393.197,352.067 393.307,352.054 393.43,352.037C393.553,352.019 393.676,352.002 393.799,351.984C393.922,351.966 394.01,351.94 394.062,351.905C394.256,351.87 394.379,351.808 394.432,351.72C394.484,351.632 394.59,351.527 394.748,351.404C394.766,351.386 394.814,351.351 394.893,351.298C394.972,351.246 395.051,351.189 395.13,351.127C395.209,351.066 395.284,351.008 395.354,350.956C395.425,350.903 395.46,350.868 395.46,350.85C395.706,350.639 395.908,350.398 396.066,350.125C396.225,349.853 396.383,349.593 396.541,349.347C396.699,349.101 396.888,348.89 397.108,348.714C397.328,348.539 397.631,348.451 398.018,348.451C398.141,348.451 398.277,348.46 398.426,348.477C398.576,348.495 398.716,348.53 398.848,348.583C398.98,348.635 399.094,348.71 399.191,348.807C399.288,348.903 399.336,349.022 399.336,349.163L399.336,349.347C399.336,349.47 399.327,349.629 399.31,349.822C399.292,350.015 399.274,350.209 399.257,350.402C399.239,350.595 399.222,350.771 399.204,350.929C399.186,351.088 399.178,351.175 399.178,351.193C399.143,351.211 399.103,351.272 399.059,351.378C399.015,351.483 398.976,351.553 398.94,351.588C398.888,351.676 398.852,351.773 398.835,351.879C398.8,351.949 398.773,352.019 398.756,352.089L398.756,353.039C398.685,353.373 398.536,353.628 398.308,353.803C398.079,353.979 397.811,354.107 397.503,354.186C397.196,354.265 396.879,354.309 396.554,354.317C396.229,354.326 395.943,354.331 395.697,354.331L394.563,354.331C394.476,354.243 394.383,354.19 394.287,354.172C394.19,354.155 394.08,354.146 393.957,354.146L393.693,354.146C393.236,354.146 392.784,354.177 392.335,354.238C391.887,354.3 391.443,354.331 391.004,354.331L390.898,354.331C390.863,354.331 390.802,354.322 390.714,354.304C390.626,354.287 390.534,354.265 390.437,354.238C390.34,354.212 390.248,354.19 390.16,354.172C390.072,354.155 390.019,354.146 390.002,354.146L383.937,354.146C383.885,354.146 383.757,354.155 383.555,354.172C383.353,354.19 383.142,354.212 382.922,354.238C382.703,354.265 382.496,354.287 382.303,354.304C382.109,354.322 381.995,354.331 381.96,354.331L381.749,354.331C381.31,354.331 380.861,354.287 380.404,354.199C379.947,354.111 379.604,353.847 379.376,353.408C379.358,353.39 379.35,353.364 379.35,353.329C379.332,353.311 379.323,353.276 379.323,353.223Z" style="fill:rgb(251,248,247);fill-rule:nonzero;"></path>
        </g>
    </g>
</svg>
