<svg xmlns="http://www.w3.org/2000/svg" xmlns:xlink="http://www.w3.org/1999/xlink" xmlns:serif="http://www.serif.com/" width="100%" height="100%" viewBox="0 0 52 52" xml:space="preserve" style="fill-rule:evenodd;clip-rule:evenodd;stroke-linejoin:round;stroke-miterlimit:2;">    <g transform="matrix(1,0,0,1,-529.916,-361.305)">        <g transform="matrix(1,0,0,1,529.916,361.305)">            <clipPath id="_clip1">                <path d="M52,2.444C52,1.095 50.905,0 49.556,0L2.444,0C1.095,0 0,1.095 0,2.444L0,49.556C0,50.905 1.095,52 2.444,52L49.556,52C50.905,52 52,50.905 52,49.556L52,2.444Z"></path>            </clipPath>            <g clip-path="url(#_clip1)">                <rect x="-1" y="-1" width="54" height="54" style="fill:rgb(134,179,167);"></rect>            </g>        </g>        <g transform="matrix(0.950408,0,0,0.950408,262.007,21.094)">            <g transform="matrix(1.3308,0,0,1.3308,-97.1793,-132.715)">                <path d="M311.156,390.535C310.336,390.722 309.79,390.981 309.517,391.311C309.243,391.642 309.107,391.973 309.107,392.304L309.107,398.583C309.107,398.583 308.909,398.651 308.513,398.788C308.118,398.925 307.632,399.087 307.057,399.274C306.481,399.461 305.906,399.64 305.33,399.813C304.755,399.986 304.269,400.115 303.874,400.201C303.478,400.288 303.28,400.295 303.28,400.223L303.28,392.304C303.28,392.088 303.237,391.883 303.151,391.689C303.065,391.495 302.802,391.301 302.363,391.106C301.925,390.912 301.18,390.722 300.13,390.535L300.13,388.744L311.156,388.744L311.156,390.535ZM309.15,376.703C309.25,376.775 309.214,377.045 309.042,377.512C308.869,377.98 308.632,378.516 308.33,379.12C308.028,379.724 307.718,380.281 307.402,380.792C307.085,381.303 306.834,381.644 306.647,381.817L305.071,381.472C304.122,379.918 303.158,378.836 302.18,378.224C301.202,377.613 300.116,377.307 298.922,377.307C298.389,377.307 297.753,377.476 297.012,377.814C296.271,378.152 295.548,378.742 294.844,379.584C294.139,380.425 293.552,381.576 293.085,383.036C292.617,384.496 292.384,386.348 292.384,388.593C292.384,391.11 292.74,393.16 293.452,394.742C294.164,396.325 295.099,397.483 296.257,398.216C297.415,398.95 298.648,399.317 299.957,399.317C301.41,399.317 302.558,399.079 303.399,398.605C304.241,398.13 305.035,397.54 305.784,396.835C305.913,396.893 306.237,397.051 306.755,397.31C307.272,397.569 307.779,397.828 308.276,398.087C308.772,398.346 309.049,398.511 309.107,398.583C306.978,400.324 305.075,401.493 303.399,402.09C301.723,402.687 300.231,402.985 298.922,402.985C297.325,402.985 295.771,402.715 294.261,402.176C292.75,401.636 291.391,400.82 290.183,399.727C288.974,398.633 288.014,397.256 287.302,395.595C286.59,393.933 286.234,391.995 286.234,389.779C286.234,386.586 286.896,383.849 288.219,381.569C289.543,379.289 291.355,377.541 293.657,376.326C295.958,375.11 298.569,374.502 301.49,374.502C302.122,374.502 302.921,374.588 303.885,374.761C304.848,374.934 305.812,375.182 306.776,375.506C307.74,375.829 308.531,376.228 309.15,376.703Z" style="fill:rgb(251,248,247);fill-rule:nonzero;"></path>            </g>            <g transform="matrix(0.89945,0,0,0.89945,36.246,41.1022)">                <path d="M331.397,394.613C331.397,395.059 331.393,395.659 331.386,396.415C331.379,397.17 331.364,397.954 331.343,398.767C331.321,399.579 331.292,400.313 331.256,400.967C331.22,401.622 331.181,402.079 331.138,402.338L313.767,402.338L313.206,401.367L324.427,385.075L319.442,385.075C317.989,385.075 316.86,386.73 316.055,390.038L314.35,389.564L314.954,381.925C315.587,382.098 316.148,382.198 316.637,382.227C317.126,382.256 317.831,382.27 318.752,382.27L331.31,382.27L331.785,383.198L320.521,399.533L327.361,399.533C327.937,399.533 328.368,399.047 328.656,398.076C328.944,397.105 329.303,395.807 329.735,394.181L331.397,394.613Z" style="fill:rgb(251,248,247);fill-rule:nonzero;"></path>            </g>        </g>    </g></svg>