<svg xmlns="http://www.w3.org/2000/svg" xmlns:xlink="http://www.w3.org/1999/xlink" xmlns:serif="http://www.serif.com/" width="100%" height="100%" viewBox="0 0 52 52" xml:space="preserve" style="fill-rule:evenodd;clip-rule:evenodd;stroke-linejoin:round;stroke-miterlimit:2;">    <g transform="matrix(1,0,0,1,-375.579,-361.18)">        <g transform="matrix(1,0,0,1,375.579,361.18)">            <clipPath id="_clip1">                <path d="M52,2.444C52,1.095 50.905,0 49.556,0L2.444,0C1.095,0 0,1.095 0,2.444L0,49.556C0,50.905 1.095,52 2.444,52L49.556,52C50.905,52 52,50.905 52,49.556L52,2.444Z"></path>            </clipPath>            <g clip-path="url(#_clip1)">                <rect x="-1" y="-1" width="54" height="54" style="fill:rgb(134,179,167);"></rect>            </g>        </g>        <g transform="matrix(0.950408,0,0,0.950408,107.67,20.9686)">            <g transform="matrix(44.1915,0,0,44.1915,285.155,402.338)">                <path d="M0.396,0.012C0.322,0.012 0.258,-0.002 0.204,-0.031C0.149,-0.06 0.108,-0.099 0.079,-0.15C0.05,-0.2 0.036,-0.256 0.036,-0.319C0.036,-0.38 0.052,-0.434 0.084,-0.483C0.116,-0.531 0.16,-0.569 0.215,-0.596C0.27,-0.623 0.332,-0.636 0.4,-0.636C0.431,-0.636 0.463,-0.633 0.496,-0.628C0.529,-0.622 0.554,-0.615 0.573,-0.607C0.578,-0.604 0.582,-0.602 0.583,-0.599C0.584,-0.596 0.585,-0.591 0.586,-0.584L0.594,-0.453C0.594,-0.45 0.592,-0.449 0.589,-0.448C0.586,-0.447 0.583,-0.448 0.582,-0.45C0.559,-0.501 0.528,-0.54 0.49,-0.569C0.452,-0.597 0.408,-0.611 0.358,-0.611C0.293,-0.611 0.243,-0.588 0.207,-0.543C0.171,-0.497 0.153,-0.435 0.153,-0.356C0.153,-0.287 0.165,-0.227 0.189,-0.174C0.213,-0.121 0.246,-0.081 0.288,-0.052C0.329,-0.023 0.376,-0.009 0.429,-0.009C0.453,-0.009 0.471,-0.013 0.484,-0.02C0.497,-0.027 0.506,-0.038 0.511,-0.055C0.516,-0.071 0.518,-0.095 0.518,-0.126C0.518,-0.159 0.515,-0.182 0.509,-0.197C0.503,-0.212 0.492,-0.221 0.476,-0.226C0.46,-0.231 0.434,-0.233 0.399,-0.233C0.395,-0.233 0.393,-0.236 0.393,-0.241C0.393,-0.243 0.394,-0.245 0.395,-0.247C0.396,-0.248 0.397,-0.249 0.398,-0.249C0.453,-0.246 0.499,-0.244 0.536,-0.244C0.571,-0.244 0.607,-0.245 0.644,-0.247C0.647,-0.247 0.648,-0.245 0.649,-0.24C0.65,-0.235 0.649,-0.233 0.646,-0.233C0.635,-0.234 0.629,-0.231 0.626,-0.225C0.623,-0.219 0.622,-0.205 0.622,-0.184L0.622,-0.116C0.622,-0.086 0.623,-0.065 0.625,-0.053C0.627,-0.041 0.628,-0.033 0.628,-0.028C0.628,-0.024 0.628,-0.021 0.627,-0.02C0.626,-0.019 0.623,-0.017 0.619,-0.016C0.534,0.003 0.459,0.012 0.396,0.012Z" style="fill:rgb(251,248,247);fill-rule:nonzero;"></path>            </g>            <g transform="matrix(44.1915,0,0,44.1915,315.382,402.338)">                <path d="M0.358,-0.118C0.358,-0.119 0.359,-0.12 0.362,-0.12C0.364,-0.12 0.366,-0.119 0.368,-0.119C0.37,-0.118 0.371,-0.117 0.37,-0.116C0.366,-0.081 0.362,-0.055 0.357,-0.038C0.352,-0.021 0.346,-0.01 0.339,-0.004C0.331,0.002 0.32,0.005 0.306,0.005C0.282,0.005 0.245,0.001 0.196,-0.008C0.19,-0.009 0.175,-0.011 0.15,-0.015C0.125,-0.019 0.103,-0.021 0.084,-0.022C0.073,-0.022 0.063,-0.02 0.055,-0.016C0.047,-0.012 0.038,-0.004 0.029,0.007C0.029,0.008 0.028,0.008 0.027,0.008C0.024,0.008 0.02,0.006 0.017,0.003C0.013,-0.001 0.012,-0.004 0.013,-0.006L0.247,-0.287C0.234,-0.288 0.205,-0.292 0.16,-0.299C0.123,-0.306 0.098,-0.31 0.083,-0.31C0.055,-0.31 0.039,-0.298 0.036,-0.275C0.035,-0.272 0.033,-0.27 0.029,-0.271C0.025,-0.272 0.024,-0.274 0.025,-0.277C0.03,-0.314 0.035,-0.341 0.04,-0.357C0.045,-0.372 0.051,-0.383 0.06,-0.388C0.069,-0.393 0.082,-0.395 0.101,-0.394C0.113,-0.393 0.128,-0.392 0.147,-0.389C0.165,-0.386 0.178,-0.383 0.185,-0.382C0.226,-0.374 0.261,-0.369 0.288,-0.367C0.3,-0.367 0.31,-0.369 0.318,-0.373C0.326,-0.377 0.334,-0.385 0.343,-0.396C0.343,-0.397 0.344,-0.397 0.345,-0.397C0.348,-0.397 0.351,-0.395 0.355,-0.392C0.358,-0.389 0.36,-0.386 0.359,-0.385L0.126,-0.103C0.148,-0.102 0.183,-0.098 0.232,-0.09C0.276,-0.083 0.304,-0.08 0.315,-0.08C0.327,-0.08 0.336,-0.083 0.343,-0.089C0.35,-0.095 0.355,-0.105 0.358,-0.118Z" style="fill:rgb(251,248,247);fill-rule:nonzero;"></path>            </g>        </g>    </g></svg>